HIERARCHY
ROOT hip
{
  OFFSET 0.00112043 5.09927 -9.65472
  CHANNELS 6 Xposition Yposition Zposition Zrotation Xrotation Yrotation
  JOINT abdomen
  {
    OFFSET 0 -1.186 -1.5018
    CHANNELS 3 Zrotation Xrotation Yrotation
    JOINT abdomen2
    {
      OFFSET 0 9.964 0.2134
      CHANNELS 3 Zrotation Xrotation Yrotation
      JOINT chest
      {
        OFFSET 0 13.134 -3.2573
        CHANNELS 3 Zrotation Xrotation Yrotation
        JOINT neck
        {
          OFFSET 0 20.686 -1.6905
          CHANNELS 3 Zrotation Xrotation Yrotation
          JOINT head
          {
            OFFSET 0 7.238 -0.1237
            CHANNELS 3 Zrotation Xrotation Yrotation
            End Site
            {
              OFFSET 0 0 0
            }
          }
        }
        JOINT lCollar
        {
          OFFSET 1.7069 20.075 5.0056
          CHANNELS 3 Zrotation Xrotation Yrotation
          JOINT lShldr
          {
            OFFSET 13.6458 -0.047 -4.849
            CHANNELS 3 Zrotation Xrotation Yrotation
            JOINT lForeArm
            {
              OFFSET 28.3255 -0.9759 2.2888
              CHANNELS 3 Zrotation Xrotation Yrotation
              JOINT lHand
              {
                OFFSET 22.1583 -0.53 10.8316
                CHANNELS 3 Zrotation Xrotation Yrotation
                JOINT lThumb1
                {
                  OFFSET 0.786 0.112 2.5817
                  CHANNELS 3 Zrotation Xrotation Yrotation
                  JOINT lThumb2
                  {
                    OFFSET 0.3601 -0.878 4.2331
                    CHANNELS 3 Zrotation Xrotation Yrotation
                    JOINT lThumb2_End
                    {
                      OFFSET 1.8127 -1.216 2.2227
                      CHANNELS 3 Zrotation Xrotation Yrotation
                      End Site
                      {
                        OFFSET 0.0181 -0.0122 0.0222
                      }
                    }
                  }
                }
                JOINT lCarpal1
                {
                  OFFSET 0.9571 1.114 1.7695
                  CHANNELS 3 Zrotation Xrotation Yrotation
                  JOINT lIndex1
                  {
                    OFFSET 4.1246 0.487 4.1451
                    CHANNELS 3 Zrotation Xrotation Yrotation
                    JOINT lIndex2
                    {
                      OFFSET 3.4052 -1.454 2.7682
                      CHANNELS 3 Zrotation Xrotation Yrotation
                      JOINT lIndex2_End
                      {
                        OFFSET 1.4531 -1.795 1.2713
                        CHANNELS 3 Zrotation Xrotation Yrotation
                        End Site
                        {
                          OFFSET 0.0145 -0.0179 0.0127
                        }
                      }
                    }
                  }
                  JOINT lMid1
                  {
                    OFFSET 5.6954 0.21 2.1184
                    CHANNELS 3 Zrotation Xrotation Yrotation
                    JOINT lMid2
                    {
                      OFFSET 3.9766 -1.54 2.3863
                      CHANNELS 3 Zrotation Xrotation Yrotation
                      JOINT lMid2_End
                      {
                        OFFSET 1.4042 -1.926 1.125
                        CHANNELS 3 Zrotation Xrotation Yrotation
                        End Site
                        {
                          OFFSET 0.014 -0.0193 0.0113
                        }
                      }
                    }
                  }
                }
                JOINT lCarpal2
                {
                  OFFSET 2.0956 0.66 -0.3894
                  CHANNELS 3 Zrotation Xrotation Yrotation
                  JOINT lRing1
                  {
                    OFFSET 5.0395 -0.09 2.4971
                    CHANNELS 3 Zrotation Xrotation Yrotation
                    JOINT lRing2
                    {
                      OFFSET 3.7921 -1.552 1.4806
                      CHANNELS 3 Zrotation Xrotation Yrotation
                      JOINT lRing2_End
                      {
                        OFFSET 1.4655 -1.808 0.9609
                        CHANNELS 3 Zrotation Xrotation Yrotation
                        End Site
                        {
                          OFFSET 0.0147 -0.0181 0.0096
                        }
                      }
                    }
                  }
                  JOINT lPinky1
                  {
                    OFFSET 4.9141 -1.269 0.3591
                    CHANNELS 3 Zrotation Xrotation Yrotation
                    JOINT lPinky2
                    {
                      OFFSET 3.1477 -1.685 0.8462
                      CHANNELS 3 Zrotation Xrotation Yrotation
                      JOINT lPinky2_End
                      {
                        OFFSET 0.8055 -1.585 0.7955
                        CHANNELS 3 Zrotation Xrotation Yrotation
                        End Site
                        {
                          OFFSET 0.0081 -0.0158 0.008
                        }
                      }
                    }
                  }
                }
              }
            }
          }
        }
        JOINT rCollar
        {
          OFFSET -1.7069 20.075 5.0056
          CHANNELS 3 Zrotation Xrotation Yrotation
          JOINT rShldr
          {
            OFFSET -13.6458 -0.047 -4.849
            CHANNELS 3 Zrotation Xrotation Yrotation
            JOINT rForeArm
            {
              OFFSET -28.3255 -0.9759 2.2888
              CHANNELS 3 Zrotation Xrotation Yrotation
              JOINT rHand
              {
                OFFSET -22.1583 -0.53 10.8316
                CHANNELS 3 Zrotation Xrotation Yrotation
                JOINT rThumb1
                {
                  OFFSET -0.786 0.112 2.5817
                  CHANNELS 3 Zrotation Xrotation Yrotation
                  JOINT rThumb2
                  {
                    OFFSET -0.3601 -0.878 4.2331
                    CHANNELS 3 Zrotation Xrotation Yrotation
                    JOINT rThumb2_End
                    {
                      OFFSET -1.8127 -1.216 2.2227
                      CHANNELS 3 Zrotation Xrotation Yrotation
                      End Site
                      {
                        OFFSET -0.0181 -0.0122 0.0222
                      }
                    }
                  }
                }
                JOINT rCarpal1
                {
                  OFFSET -0.9571 1.114 1.7695
                  CHANNELS 3 Zrotation Xrotation Yrotation
                  JOINT rIndex1
                  {
                    OFFSET -4.1246 0.487 4.1451
                    CHANNELS 3 Zrotation Xrotation Yrotation
                    JOINT rIndex2
                    {
                      OFFSET -3.4052 -1.454 2.7682
                      CHANNELS 3 Zrotation Xrotation Yrotation
                      JOINT rIndex2_End
                      {
                        OFFSET -1.4531 -1.795 1.2713
                        CHANNELS 3 Zrotation Xrotation Yrotation
                        End Site
                        {
                          OFFSET -0.0145 -0.018 0.0127
                        }
                      }
                    }
                  }
                  JOINT rMid1
                  {
                    OFFSET -5.6954 0.21 2.1184
                    CHANNELS 3 Zrotation Xrotation Yrotation
                    JOINT rMid2
                    {
                      OFFSET -3.9766 -1.54 2.3863
                      CHANNELS 3 Zrotation Xrotation Yrotation
                      JOINT rMid2_End
                      {
                        OFFSET -1.4042 -1.926 1.125
                        CHANNELS 3 Zrotation Xrotation Yrotation
                        End Site
                        {
                          OFFSET -0.014 -0.0193 0.0113
                        }
                      }
                    }
                  }
                }
                JOINT rCarpal2
                {
                  OFFSET -2.0956 0.66 -0.3894
                  CHANNELS 3 Zrotation Xrotation Yrotation
                  JOINT rRing1
                  {
                    OFFSET -5.0395 -0.09 2.4971
                    CHANNELS 3 Zrotation Xrotation Yrotation
                    JOINT rRing2
                    {
                      OFFSET -3.7921 -1.552 1.4806
                      CHANNELS 3 Zrotation Xrotation Yrotation
                      JOINT rRing2_End
                      {
                        OFFSET -1.4655 -1.808 0.9609
                        CHANNELS 3 Zrotation Xrotation Yrotation
                        End Site
                        {
                          OFFSET -0.0147 -0.0181 0.0096
                        }
                      }
                    }
                  }
                  JOINT rPinky1
                  {
                    OFFSET -4.9141 -1.269 0.3592
                    CHANNELS 3 Zrotation Xrotation Yrotation
                    JOINT rPinky2
                    {
                      OFFSET -3.1477 -1.685 0.8462
                      CHANNELS 3 Zrotation Xrotation Yrotation
                      JOINT rPinky2_End
                      {
                        OFFSET -0.8055 -1.585 0.7955
                        CHANNELS 3 Zrotation Xrotation Yrotation
                        End Site
                        {
                          OFFSET -0.0081 -0.0158 0.008
                        }
                      }
                    }
                  }
                }
              }
            }
          }
        }
      }
    }
  }
  JOINT lThigh
  {
    OFFSET 8.367 -8.2066 0.5982
    CHANNELS 3 Zrotation Xrotation Yrotation
    JOINT lShin
    {
      OFFSET 2.1923 -43.463 -0.4932
      CHANNELS 3 Zrotation Xrotation Yrotation
      JOINT lFoot
      {
        OFFSET 0.7333 -45.8593 -2.6451
        CHANNELS 3 Zrotation Xrotation Yrotation
        End Site
        {
          OFFSET 2.6618 -4.2699 12.3931
        }
      }
    }
  }
  JOINT rThigh
  {
    OFFSET -8.367 -8.2066 0.5982
    CHANNELS 3 Zrotation Xrotation Yrotation
    JOINT rShin
    {
      OFFSET -2.1923 -43.463 -0.4931
      CHANNELS 3 Zrotation Xrotation Yrotation
      JOINT rFoot
      {
        OFFSET -0.7333 -45.8593 -2.6451
        CHANNELS 3 Zrotation Xrotation Yrotation
        End Site
        {
          OFFSET -2.6618 -4.2699 12.3931
        }
      }
    }
  }
}
MOTION
Frames:	4
Frame Time:	0.0333333
0 91.7903 2.51682 0 0 -0 0 0 -0 0 0 -0 0 0 -0 0 0 -0 0 0 -0 0 0 -0 1.66051 0.0835086 5.75766 -0.0175111 0.895433 15.7816 7.95139e-016 -1.98785e-016 -0 5.46658e-016 -3.97569e-016 -0 5.96354e-016 0 -0 3.97569e-016 1.98785e-016 9.54166e-015 1.49089e-016 -3.97569e-016 -0 6.4605e-016 0 3.18055e-015 5.96354e-016 0 3.18055e-015 8.94531e-016 -1.98785e-016 6.36111e-015 6.4605e-016 0 3.18055e-015 5.96354e-016 0 3.18055e-015 8.94531e-016 -1.98785e-016 6.36111e-015 1.49089e-016 -3.97569e-016 -0 6.4605e-016 0 3.18055e-015 5.96354e-016 0 3.18055e-015 8.94531e-016 -1.98785e-016 6.36111e-015 6.4605e-016 0 3.18055e-015 5.96354e-016 0 3.18055e-015 8.94531e-016 -1.98785e-016 6.36111e-015 0 0 -0 -1.4496 0.0636048 -5.0245 -1.74811 1.20616 -16.8394 -1.19271e-015 1.98785e-016 -3.18055e-015 -3.97569e-016 1.98785e-016 -3.18055e-015 -2.98177e-016 1.98785e-016 -3.18055e-015 -2.98177e-016 3.97569e-016 -0 4.96962e-016 0 -6.36111e-015 -9.93923e-017 3.97569e-016 -0 -8.94531e-016 5.96354e-016 -0 -3.97569e-016 3.97569e-016 -0 -9.93923e-017 3.97569e-016 -0 -8.94531e-016 5.96354e-016 -0 -3.97569e-016 3.97569e-016 -0 4.96962e-016 0 -6.36111e-015 -9.93923e-017 3.97569e-016 -0 -8.94531e-016 5.96354e-016 -0 -3.97569e-016 3.97569e-016 -0 -9.93923e-017 3.97569e-016 -0 -8.94531e-016 5.96354e-016 -0 -3.97569e-016 3.97569e-016 -0 -4.66111 -0.998717 0.12318 0.00986924 1.54847 0.176523 4.65186 -0.572283 -0.254274 4.66111 -0.998765 -0.123176 -0.00986867 1.54869 -0.176537 -4.65186 -0.572453 0.25427 
4.48068 50.5812 30.1225 0.0207104 0.0195393 133.333 1.37761 6.13522 -0.707595 2.85656 12.251 -1.5779 2.85655 12.251 -1.57791 -14.9802 12.4888 4.78063 6.08242e-007 -33.3359 2.93196e-006 -2.0377 -35.9725 24.4405 -46.1139 5.79741 -21.1936 38.5476 -3.61735 -70.5525 -9.34077 -17.2291 -0.963344 -2.56502e-007 -1.09197e-006 -7.9507e-007 9.56591e-007 1.97966e-006 7.92145e-008 1.59028e-015 -1.59028e-015 -3.18055e-015 -4.77083e-015 5.1684e-015 -0 -2.56502e-007 -1.09197e-006 -7.9507e-007 9.56591e-007 1.97966e-006 7.92145e-008 1.59028e-015 -3.97569e-016 3.18055e-015 -2.56502e-007 -1.09197e-006 -7.9507e-007 9.56591e-007 1.97966e-006 7.92145e-008 1.59028e-015 -3.97569e-016 3.18055e-015 -4.77083e-015 5.1684e-015 -0 -2.56502e-007 -1.09197e-006 -7.9507e-007 9.56591e-007 1.97966e-006 7.92145e-008 1.59028e-015 -3.97569e-016 3.18055e-015 -2.56502e-007 -1.09197e-006 -7.9507e-007 9.56591e-007 1.97966e-006 7.92145e-008 1.59028e-015 -3.97569e-016 3.18055e-015 32.1957 -48.2528 -3.38533 20.5594 14.7186 -16.1602 33.8484 23.2824 -21.37 22.7791 -36.8625 37.9845 -7.95139e-016 0 2.98177e-016 -1.59028e-015 0 -1.98785e-016 -1.59028e-015 -7.95139e-016 7.45443e-016 0 0 -5.96354e-016 -1.59028e-015 0 4.96962e-016 -1.59028e-015 -7.95139e-016 -1.49089e-016 -1.59028e-015 -7.95139e-016 8.44835e-016 -1.59028e-015 0 4.96962e-016 -1.59028e-015 -7.95139e-016 -1.49089e-016 -1.59028e-015 -7.95139e-016 8.44835e-016 0 0 -5.96354e-016 -1.59028e-015 0 4.96962e-016 -1.59028e-015 -7.95139e-016 -1.49089e-016 -1.59028e-015 -7.95139e-016 8.44835e-016 -1.59028e-015 0 4.96962e-016 -1.59028e-015 -7.95139e-016 -1.49089e-016 -1.59028e-015 -7.95139e-016 8.44835e-016 0.830568 -3.76044 3.64115 8.38616 66.9817 -6.64493 13.0322 47.8177 -1.69103 0.612033 -2.45564 -3.59462 -9.4035 67.5952 6.94826 -12.2473 48.4689 1.04581 
-0.675812 31.2398 43.7057 0.0229786 -0.0969541 -166.667 2.11643 8.78622 -0.904623 4.45469 17.5309 -2.18057 4.45469 17.5309 -2.18057 -22.5307 18.77 7.41526 2.7389e-007 -48.3371 -5.41864e-007 9.74456 -46.4206 43.2583 -65.8567 7.21008 -33.4724 47.3055 -32.4193 -98.5702 -13.847 -24.6208 -2.4535 -2.81165e-007 -1.13135e-006 -2.05637e-007 -2.5168e-006 4.92493e-006 8.49995e-006 -2.44583e-006 -1.623e-006 -4.04147e-006 0 0 -1.59028e-015 -2.81165e-007 -1.13135e-006 -2.05637e-007 -2.5168e-006 4.92493e-006 8.49995e-006 -2.44583e-006 -1.623e-006 -4.04147e-006 -2.81165e-007 -1.13135e-006 -2.05637e-007 -2.5168e-006 4.92493e-006 8.49995e-006 -2.44583e-006 -1.623e-006 -4.04147e-006 0 0 -1.59028e-015 -2.81165e-007 -1.13135e-006 -2.05637e-007 -2.5168e-006 4.92493e-006 8.49995e-006 -2.44583e-006 -1.623e-006 -4.04147e-006 -2.81165e-007 -1.13135e-006 -2.05637e-007 -2.5168e-006 4.92493e-006 8.49995e-006 -2.44583e-006 -1.623e-006 -4.04147e-006 40.6021 -69.7362 -10.3992 32.1628 20.9344 -21.9919 41.9894 47.7062 -19.833 45.0543 -35.8656 62.5507 -2.78687e-006 1.06334e-006 9.21846e-007 2.78687e-006 -1.06334e-006 -9.21846e-007 -2.78687e-006 1.06334e-006 9.21846e-007 -1.59028e-015 -6.36111e-015 1.59028e-015 -2.78687e-006 1.06334e-006 9.21846e-007 2.78687e-006 -1.06334e-006 -9.21846e-007 -2.78687e-006 1.06334e-006 9.21846e-007 -2.78687e-006 1.06334e-006 9.21846e-007 2.78687e-006 -1.06334e-006 -9.21846e-007 -2.78687e-006 1.06334e-006 9.21846e-007 -1.59028e-015 -6.36111e-015 1.59028e-015 -2.78687e-006 1.06334e-006 9.21846e-007 2.78687e-006 -1.06334e-006 -9.21846e-007 -2.78687e-006 1.06334e-006 9.21846e-007 -2.78687e-006 1.06334e-006 9.21846e-007 2.78687e-006 -1.06334e-006 -9.21846e-007 -2.78687e-006 1.06334e-006 9.21846e-007 3.4867 -5.83677 6.20011 141.947 80.5469 -137.346 19.2856 69.4727 -4.71391 -1.4125 -3.93585 -6.181 -145.524 79.8294 139.791 -17.3954 70.44 3.10371 
0.588077 35.67 40.1991 -7.06377e-015 -0.384308 180 1.94788 7.93163 -0.844146 4.0741 15.8284 -1.99204 4.0741 15.8284 -1.99204 -21.0056 19.0086 7.46305 -3.16817e-008 -45.0035 4.13286e-006 4.94512 -43.6794 37.1272 -61.5433 6.98834 -30.7382 47.0078 -24.899 -92.2394 -12.5741 -22.3841 -2.67388 3.18055e-015 -3.18055e-015 6.36111e-015 -4.44077e-006 2.34745e-006 4.31618e-006 -9.54166e-015 3.18055e-015 -4.77083e-015 3.18055e-015 -3.18055e-015 3.18055e-015 3.18055e-015 3.18055e-015 7.95139e-015 -4.44077e-006 2.34745e-006 4.31618e-006 -6.36111e-015 3.18055e-015 1.59028e-015 3.18055e-015 3.18055e-015 7.95139e-015 -4.44077e-006 2.34745e-006 4.31618e-006 -6.36111e-015 3.18055e-015 1.59028e-015 3.18055e-015 -3.18055e-015 3.18055e-015 3.18055e-015 3.18055e-015 7.95139e-015 -4.44077e-006 2.34745e-006 4.31618e-006 -6.36111e-015 3.18055e-015 1.59028e-015 3.18055e-015 3.18055e-015 7.95139e-015 -4.44077e-006 2.34745e-006 4.31618e-006 -6.36111e-015 3.18055e-015 1.59028e-015 38.3653 -64.9207 -9.4552 28.8325 19.7774 -21.1355 41.1164 41.3556 -20.4815 40.5012 -35.2291 56.6617 -1.98593e-006 -5.87926e-006 1.11602e-005 -2.59486e-006 1.258e-006 1.11545e-006 4.60434e-006 -1.75544e-006 9.23468e-006 1.59028e-015 3.18055e-015 3.18055e-015 -1.98593e-006 -5.87926e-006 1.11602e-005 -2.59486e-006 1.258e-006 1.11545e-006 4.60434e-006 -1.75544e-006 9.23468e-006 -1.98593e-006 -5.87926e-006 1.11602e-005 -2.59486e-006 1.258e-006 1.11545e-006 4.60434e-006 -1.75544e-006 9.23468e-006 1.59028e-015 3.18055e-015 3.18055e-015 -1.98593e-006 -5.87926e-006 1.11602e-005 -2.59486e-006 1.258e-006 1.11545e-006 4.60434e-006 -1.75544e-006 9.23468e-006 -1.98593e-006 -5.87926e-006 1.11602e-005 -2.59486e-006 1.258e-006 1.11545e-006 4.60434e-006 -1.75544e-006 9.23468e-006 2.85799 -5.80398 5.52383 97.6184 84.6538 -93.8027 17.4291 64.6281 -3.5853 -0.929432 -4.038 -5.48907 -106.549 84.4276 101.705 -15.9068 65.5209 2.31208 
